<svg width="229" height="44" viewBox="0 0 229 44" fill="none" xmlns="http://www.w3.org/2000/svg">
<g style="mix-blend-mode:soft-light">
<path d="M16.472 43.64C23.448 43.64 28.568 39.992 30.104 33.656H30.36V43H34.52V0.119999H29.976V20.216H29.656C28.248 14.776 23.576 10.744 16.088 10.744C6.36 10.744 0.728 17.592 0.728 27.192C0.728 36.792 6.36 43.64 16.472 43.64ZM5.336 27.192C5.336 18.04 10.264 14.968 17.496 14.968C25.304 14.968 29.976 19.32 29.976 27.128V27.704C29.976 35.192 25.048 39.48 17.624 39.48C10.2 39.48 5.336 36.344 5.336 27.192ZM44.1365 43V25.848C44.1365 18.744 46.9525 14.712 53.3525 14.712C58.8565 14.712 61.0965 17.336 61.0965 22.712V25.144H65.6405V22.008C65.6405 16.12 62.4405 10.744 55.1445 10.744C48.5525 10.744 44.9685 14.968 44.0085 20.024H43.6885V11.384H39.5925V43H44.1365ZM72.889 7.352V0.119999H68.345V7.352H72.889ZM72.889 43V11.384H68.345V43H72.889ZM82.0685 43V33.656H82.3885C83.8605 39.992 88.9165 43.64 95.9565 43.64C106.261 43.64 111.701 36.792 111.701 27.192C111.701 17.592 106.261 10.744 96.3405 10.744C88.7245 10.744 84.1805 14.776 82.8365 20.216H82.5165V0.119999H77.9725V43H82.0685ZM82.5165 27.704V27.128C82.5165 19.32 86.9965 14.968 94.9965 14.968C102.293 14.968 107.093 18.04 107.093 27.192C107.093 36.344 102.421 39.48 94.8685 39.48C87.2525 39.48 82.5165 35.192 82.5165 27.704ZM118.821 43V33.656H119.141C120.613 39.992 125.669 43.64 132.709 43.64C143.013 43.64 148.453 36.792 148.453 27.192C148.453 17.592 143.013 10.744 133.093 10.744C125.477 10.744 120.933 14.776 119.589 20.216H119.269V0.119999H114.725V43H118.821ZM119.269 27.704V27.128C119.269 19.32 123.749 14.968 131.749 14.968C139.045 14.968 143.845 18.04 143.845 27.192C143.845 36.344 139.173 39.48 131.621 39.48C124.005 39.48 119.269 35.192 119.269 27.704ZM155.573 43V33.656H155.893C157.365 39.992 162.421 43.64 169.461 43.64C179.765 43.64 185.205 36.792 185.205 27.192C185.205 17.592 179.765 10.744 169.845 10.744C162.229 10.744 157.685 14.776 156.341 20.216H156.021V0.119999H151.477V43H155.573ZM156.021 27.704V27.128C156.021 19.32 160.501 14.968 168.501 14.968C175.797 14.968 180.597 18.04 180.597 27.192C180.597 36.344 175.925 39.48 168.373 39.48C160.757 39.48 156.021 35.192 156.021 27.704ZM192.774 43V0.119999H188.23V43H192.774ZM212.898 43.64C221.73 43.64 228.258 39.096 228.258 32.504V32.056H223.714V32.504C223.714 37.112 220.258 39.864 212.834 39.864C204.45 39.864 200.802 35.576 200.546 28.472H228.386C228.578 27.64 228.706 26.68 228.706 25.528C228.706 16.12 222.114 10.744 212.834 10.744C202.658 10.744 196.258 17.592 196.258 27.192C196.258 37.24 202.722 43.64 212.898 43.64ZM212.77 14.52C220.194 14.52 224.418 18.04 224.418 24.696C224.418 25.016 224.418 25.336 224.418 25.656H200.546C200.866 18.744 204.578 14.52 212.77 14.52Z" fill="white"/>
</g>
</svg>
