<svg width="334" height="168" viewBox="0 0 334 168" fill="none" xmlns="http://www.w3.org/2000/svg">
<mask id="path-1-outside-1_2_13" maskUnits="userSpaceOnUse" x="0" y="0" width="334" height="168" fill="black">
<rect fill="white" width="334" height="168"/>
<path d="M52.8636 166.455C42.6818 166.455 33.6932 163.883 25.8977 158.739C18.1023 153.542 12.0038 146.223 7.60227 136.784C3.20076 127.292 1 116.076 1 103.136C1 90.303 3.20076 79.1667 7.60227 69.7273C12.0038 60.2879 18.1288 52.9962 25.9773 47.8523C33.8258 42.7083 42.8939 40.1364 53.1818 40.1364C61.1364 40.1364 67.4205 41.4621 72.0341 44.1136C76.7008 46.7121 80.2538 49.6818 82.6932 53.0227C85.1856 56.3106 87.1212 59.0152 88.5 61.1364H90.0909V1H108.864V163.909H90.7273V145.136H88.5C87.1212 147.364 85.1591 150.174 82.6136 153.568C80.0682 156.909 76.4356 159.905 71.7159 162.557C66.9962 165.155 60.7121 166.455 52.8636 166.455ZM55.4091 149.591C62.9394 149.591 69.303 147.629 74.5 143.705C79.697 139.727 83.6477 134.239 86.3523 127.239C89.0568 120.186 90.4091 112.045 90.4091 102.818C90.4091 93.697 89.0833 85.7159 86.4318 78.875C83.7803 71.9811 79.8561 66.625 74.6591 62.8068C69.4621 58.9356 63.0455 57 55.4091 57C47.4546 57 40.8258 59.0417 35.5227 63.125C30.2727 67.1553 26.322 72.6439 23.6705 79.5909C21.072 86.4849 19.7727 94.2273 19.7727 102.818C19.7727 111.515 21.0985 119.417 23.75 126.523C26.4545 133.576 30.4318 139.197 35.6818 143.386C40.9849 147.523 47.5606 149.591 55.4091 149.591Z"/>
<path d="M221.198 69.0909L204.334 73.8636C203.273 71.053 201.709 68.322 199.641 65.6705C197.626 62.9659 194.868 60.7386 191.368 58.9886C187.868 57.2386 183.387 56.3636 177.925 56.3636C170.448 56.3636 164.217 58.0871 159.232 61.5341C154.3 64.928 151.834 69.25 151.834 74.5C151.834 79.1667 153.531 82.8523 156.925 85.5568C160.319 88.2614 165.622 90.5152 172.834 92.3182L190.97 96.7727C201.895 99.4242 210.035 103.481 215.391 108.943C220.747 114.352 223.425 121.326 223.425 129.864C223.425 136.864 221.41 143.121 217.38 148.636C213.402 154.152 207.834 158.5 200.675 161.682C193.516 164.864 185.19 166.455 175.698 166.455C163.236 166.455 152.921 163.75 144.755 158.341C136.588 152.932 131.417 145.03 129.243 134.636L147.061 130.182C148.758 136.758 151.967 141.689 156.686 144.977C161.459 148.265 167.69 149.909 175.38 149.909C184.13 149.909 191.077 148.053 196.22 144.341C201.417 140.576 204.016 136.068 204.016 130.818C204.016 126.576 202.531 123.023 199.561 120.159C196.592 117.242 192.031 115.068 185.88 113.636L165.516 108.864C154.327 106.212 146.107 102.102 140.857 96.5341C135.66 90.9129 133.061 83.8864 133.061 75.4546C133.061 68.5606 134.997 62.4621 138.868 57.1591C142.792 51.8561 148.122 47.6932 154.857 44.6704C161.645 41.6477 169.334 40.1364 177.925 40.1364C190.016 40.1364 199.508 42.7879 206.402 48.0909C213.349 53.3939 218.281 60.3939 221.198 69.0909Z"/>
<path d="M276.438 166.773C268.696 166.773 261.669 165.314 255.359 162.398C249.048 159.428 244.037 155.159 240.324 149.591C236.612 143.97 234.756 137.182 234.756 129.227C234.756 122.227 236.135 116.553 238.893 112.205C241.65 107.803 245.336 104.356 249.949 101.864C254.563 99.3712 259.654 97.5152 265.222 96.2955C270.843 95.0227 276.491 94.0152 282.165 93.2727C289.59 92.3182 295.609 91.6023 300.222 91.125C304.889 90.5947 308.283 89.7197 310.404 88.5C312.578 87.2803 313.665 85.1591 313.665 82.1364V81.5C313.665 73.6515 311.518 67.553 307.222 63.2046C302.98 58.8561 296.537 56.6818 287.893 56.6818C278.93 56.6818 271.904 58.6439 266.813 62.5682C261.722 66.4924 258.143 70.6818 256.074 75.1364L238.256 68.7727C241.438 61.3485 245.68 55.5682 250.984 51.4318C256.34 47.2424 262.173 44.3258 268.484 42.6818C274.847 40.9849 281.105 40.1364 287.256 40.1364C291.18 40.1364 295.688 40.6136 300.779 41.5682C305.923 42.4697 310.881 44.3523 315.654 47.2159C320.48 50.0795 324.484 54.4015 327.665 60.1818C330.847 65.9621 332.438 73.7045 332.438 83.4091V163.909H313.665V147.364H312.711C311.438 150.015 309.317 152.852 306.347 155.875C303.377 158.898 299.427 161.47 294.495 163.591C289.563 165.712 283.544 166.773 276.438 166.773ZM279.302 149.909C286.726 149.909 292.984 148.451 298.074 145.534C303.218 142.617 307.09 138.852 309.688 134.239C312.34 129.625 313.665 124.773 313.665 119.682V102.5C312.87 103.455 311.12 104.33 308.415 105.125C305.764 105.867 302.688 106.53 299.188 107.114C295.741 107.644 292.374 108.121 289.086 108.545C285.851 108.917 283.226 109.235 281.211 109.5C276.332 110.136 271.771 111.17 267.529 112.602C263.34 113.981 259.946 116.076 257.347 118.886C254.802 121.644 253.529 125.409 253.529 130.182C253.529 136.705 255.942 141.636 260.768 144.977C265.646 148.265 271.824 149.909 279.302 149.909Z"/>
</mask>
<path d="M52.8636 166.455C42.6818 166.455 33.6932 163.883 25.8977 158.739C18.1023 153.542 12.0038 146.223 7.60227 136.784C3.20076 127.292 1 116.076 1 103.136C1 90.303 3.20076 79.1667 7.60227 69.7273C12.0038 60.2879 18.1288 52.9962 25.9773 47.8523C33.8258 42.7083 42.8939 40.1364 53.1818 40.1364C61.1364 40.1364 67.4205 41.4621 72.0341 44.1136C76.7008 46.7121 80.2538 49.6818 82.6932 53.0227C85.1856 56.3106 87.1212 59.0152 88.5 61.1364H90.0909V1H108.864V163.909H90.7273V145.136H88.5C87.1212 147.364 85.1591 150.174 82.6136 153.568C80.0682 156.909 76.4356 159.905 71.7159 162.557C66.9962 165.155 60.7121 166.455 52.8636 166.455ZM55.4091 149.591C62.9394 149.591 69.303 147.629 74.5 143.705C79.697 139.727 83.6477 134.239 86.3523 127.239C89.0568 120.186 90.4091 112.045 90.4091 102.818C90.4091 93.697 89.0833 85.7159 86.4318 78.875C83.7803 71.9811 79.8561 66.625 74.6591 62.8068C69.4621 58.9356 63.0455 57 55.4091 57C47.4546 57 40.8258 59.0417 35.5227 63.125C30.2727 67.1553 26.322 72.6439 23.6705 79.5909C21.072 86.4849 19.7727 94.2273 19.7727 102.818C19.7727 111.515 21.0985 119.417 23.75 126.523C26.4545 133.576 30.4318 139.197 35.6818 143.386C40.9849 147.523 47.5606 149.591 55.4091 149.591Z" stroke="black" stroke-width="2" stroke-dasharray="2 2" mask="url(#path-1-outside-1_2_13)"/>
<path d="M221.198 69.0909L204.334 73.8636C203.273 71.053 201.709 68.322 199.641 65.6705C197.626 62.9659 194.868 60.7386 191.368 58.9886C187.868 57.2386 183.387 56.3636 177.925 56.3636C170.448 56.3636 164.217 58.0871 159.232 61.5341C154.3 64.928 151.834 69.25 151.834 74.5C151.834 79.1667 153.531 82.8523 156.925 85.5568C160.319 88.2614 165.622 90.5152 172.834 92.3182L190.97 96.7727C201.895 99.4242 210.035 103.481 215.391 108.943C220.747 114.352 223.425 121.326 223.425 129.864C223.425 136.864 221.41 143.121 217.38 148.636C213.402 154.152 207.834 158.5 200.675 161.682C193.516 164.864 185.19 166.455 175.698 166.455C163.236 166.455 152.921 163.75 144.755 158.341C136.588 152.932 131.417 145.03 129.243 134.636L147.061 130.182C148.758 136.758 151.967 141.689 156.686 144.977C161.459 148.265 167.69 149.909 175.38 149.909C184.13 149.909 191.077 148.053 196.22 144.341C201.417 140.576 204.016 136.068 204.016 130.818C204.016 126.576 202.531 123.023 199.561 120.159C196.592 117.242 192.031 115.068 185.88 113.636L165.516 108.864C154.327 106.212 146.107 102.102 140.857 96.5341C135.66 90.9129 133.061 83.8864 133.061 75.4546C133.061 68.5606 134.997 62.4621 138.868 57.1591C142.792 51.8561 148.122 47.6932 154.857 44.6704C161.645 41.6477 169.334 40.1364 177.925 40.1364C190.016 40.1364 199.508 42.7879 206.402 48.0909C213.349 53.3939 218.281 60.3939 221.198 69.0909Z" stroke="black" stroke-width="2" stroke-dasharray="2 2" mask="url(#path-1-outside-1_2_13)"/>
<path d="M276.438 166.773C268.696 166.773 261.669 165.314 255.359 162.398C249.048 159.428 244.037 155.159 240.324 149.591C236.612 143.97 234.756 137.182 234.756 129.227C234.756 122.227 236.135 116.553 238.893 112.205C241.65 107.803 245.336 104.356 249.949 101.864C254.563 99.3712 259.654 97.5152 265.222 96.2955C270.843 95.0227 276.491 94.0152 282.165 93.2727C289.59 92.3182 295.609 91.6023 300.222 91.125C304.889 90.5947 308.283 89.7197 310.404 88.5C312.578 87.2803 313.665 85.1591 313.665 82.1364V81.5C313.665 73.6515 311.518 67.553 307.222 63.2046C302.98 58.8561 296.537 56.6818 287.893 56.6818C278.93 56.6818 271.904 58.6439 266.813 62.5682C261.722 66.4924 258.143 70.6818 256.074 75.1364L238.256 68.7727C241.438 61.3485 245.68 55.5682 250.984 51.4318C256.34 47.2424 262.173 44.3258 268.484 42.6818C274.847 40.9849 281.105 40.1364 287.256 40.1364C291.18 40.1364 295.688 40.6136 300.779 41.5682C305.923 42.4697 310.881 44.3523 315.654 47.2159C320.48 50.0795 324.484 54.4015 327.665 60.1818C330.847 65.9621 332.438 73.7045 332.438 83.4091V163.909H313.665V147.364H312.711C311.438 150.015 309.317 152.852 306.347 155.875C303.377 158.898 299.427 161.47 294.495 163.591C289.563 165.712 283.544 166.773 276.438 166.773ZM279.302 149.909C286.726 149.909 292.984 148.451 298.074 145.534C303.218 142.617 307.09 138.852 309.688 134.239C312.34 129.625 313.665 124.773 313.665 119.682V102.5C312.87 103.455 311.12 104.33 308.415 105.125C305.764 105.867 302.688 106.53 299.188 107.114C295.741 107.644 292.374 108.121 289.086 108.545C285.851 108.917 283.226 109.235 281.211 109.5C276.332 110.136 271.771 111.17 267.529 112.602C263.34 113.981 259.946 116.076 257.347 118.886C254.802 121.644 253.529 125.409 253.529 130.182C253.529 136.705 255.942 141.636 260.768 144.977C265.646 148.265 271.824 149.909 279.302 149.909Z" stroke="black" stroke-width="2" stroke-dasharray="2 2" mask="url(#path-1-outside-1_2_13)"/>
</svg>
