<svg width="286" height="55" viewBox="0 0 286 55" fill="none" xmlns="http://www.w3.org/2000/svg">
<g style="mix-blend-mode:soft-light">
<path d="M5.384 7.352V0.119999H0.84V7.352H5.384ZM5.384 43V11.384H0.84V43H5.384ZM15.0115 43V27.704C15.0115 19.576 19.0435 14.904 26.7235 14.904C33.9555 14.904 37.0915 18.68 37.0915 25.208V43H41.6355V24.568C41.6355 17.08 37.2195 10.744 28.3235 10.744C20.4515 10.744 15.9715 15.928 14.8835 21.304H14.5635V11.384H10.4675V43H15.0115ZM60.358 43.64C68.55 43.64 74.438 40.504 74.438 34.552C74.438 29.432 70.79 27.128 64.006 26.168L56.262 25.08C51.014 24.312 49.35 23.16 49.35 19.896C49.35 16.12 52.102 14.52 58.758 14.52C66.822 14.52 69.318 17.08 69.318 21.816V22.136H73.862V22.008C73.862 14.584 67.974 10.744 58.886 10.744C50.182 10.744 44.87 14.264 44.87 19.832C44.87 25.08 48.518 27.32 54.278 28.088L62.726 29.304C67.974 30.136 69.958 31.224 69.958 34.552C69.958 38.2 67.526 39.864 60.422 39.864C52.678 39.864 49.542 38.008 49.542 32.696V32.312H44.998V32.44C44.998 39.736 50.63 43.64 60.358 43.64ZM97.2395 43V38.84H91.4795C86.8715 38.84 84.6955 37.624 84.6955 33.208V15.288H97.2395V11.384H84.6955V3.832H80.0875V11.384H74.4555V15.288H80.0875V32.952C80.0875 40.376 84.1195 43 90.3915 43H97.2395ZM108.431 43.64C115.791 43.64 121.359 40.312 123.215 34.488H123.535V43H127.631V23.224C127.631 16.248 123.535 10.744 113.935 10.744C104.207 10.744 98.7025 16.184 98.7025 22.84V23.096H103.247V22.84C103.247 17.272 106.831 14.84 113.615 14.84C120.527 14.84 123.215 17.272 123.215 23.416V25.848L108.175 27.512C102.287 28.152 97.9985 30.392 97.9985 35.576C97.9985 40.696 102.223 43.64 108.431 43.64ZM102.543 35.256C102.543 31.992 104.847 30.84 109.583 30.392L123.215 28.856V29.112C123.215 36.728 117.135 40.12 109.455 40.12C104.655 40.12 102.543 38.456 102.543 35.256ZM146.108 40.44C153.404 40.44 158.076 36.856 159.356 31.992H159.676V40.248C159.676 48.12 156.476 50.616 148.284 50.616C141.244 50.616 137.532 48.44 137.532 42.872H132.988C132.988 50.232 139.516 54.52 148.092 54.52C157.628 54.52 164.22 50.424 164.22 39.992V11.384H160.124V19.512H159.804C158.524 13.88 153.276 10.744 146.62 10.744C136.892 10.744 130.94 16.952 130.94 25.592C130.94 34.232 136.7 40.44 146.108 40.44ZM135.484 25.592C135.484 17.528 140.54 14.776 147.644 14.776C154.94 14.776 159.676 18.488 159.676 24.696V25.784C159.676 32.504 155.132 36.408 147.324 36.408C140.476 36.408 135.484 33.656 135.484 25.592ZM173.899 43V25.848C173.899 18.744 176.715 14.712 183.115 14.712C188.619 14.712 190.859 17.336 190.859 22.712V25.144H195.403V22.008C195.403 16.12 192.203 10.744 184.907 10.744C178.315 10.744 174.731 14.968 173.771 20.024H173.451V11.384H169.355V43H173.899ZM206.876 43.64C214.236 43.64 219.804 40.312 221.66 34.488H221.98V43H226.076V23.224C226.076 16.248 221.98 10.744 212.38 10.744C202.652 10.744 197.148 16.184 197.148 22.84V23.096H201.692V22.84C201.692 17.272 205.276 14.84 212.06 14.84C218.972 14.84 221.66 17.272 221.66 23.416V25.848L206.62 27.512C200.732 28.152 196.444 30.392 196.444 35.576C196.444 40.696 200.668 43.64 206.876 43.64ZM200.988 35.256C200.988 31.992 203.292 30.84 208.028 30.392L221.66 28.856V29.112C221.66 36.728 215.58 40.12 207.9 40.12C203.1 40.12 200.988 38.456 200.988 35.256ZM235.529 43V27.704C235.529 19.32 238.537 14.904 246.217 14.904C252.873 14.904 255.817 18.168 255.817 25.208V43H260.361V27.704C260.361 19.32 263.433 14.904 271.049 14.904C277.705 14.904 280.713 18.168 280.713 25.208V43H285.257V24.568C285.257 16.568 280.969 10.744 272.713 10.744C264.777 10.744 261.001 15.8 260.105 21.24H259.785C258.761 15.096 254.793 10.744 247.753 10.744C239.881 10.744 236.233 15.608 235.337 20.92H235.081V11.384H230.985V43H235.529Z" fill="white"/>
</g>
</svg>
