<svg width="201" height="44" viewBox="0 0 201 44" fill="none" xmlns="http://www.w3.org/2000/svg">
<g style="mix-blend-mode:soft-light">
<path d="M5.384 43V0.119999H0.84V43H5.384ZM15.0115 7.352V0.119999H10.4675V7.352H15.0115ZM15.0115 43V11.384H10.4675V43H15.0115ZM24.639 43V27.704C24.639 19.576 28.671 14.904 36.351 14.904C43.583 14.904 46.719 18.68 46.719 25.208V43H51.263V24.568C51.263 17.08 46.847 10.744 37.951 10.744C30.079 10.744 25.599 15.928 24.511 21.304H24.191V11.384H20.095V43H24.639ZM60.6415 43V28.792H71.2015L81.8255 43H87.1375L74.9775 26.488L87.2015 11.384H81.8255L71.2655 24.632H60.6415V0.119999H56.0975V43H60.6415ZM104.078 43.64C112.91 43.64 119.438 39.096 119.438 32.504V32.056H114.894V32.504C114.894 37.112 111.438 39.864 104.014 39.864C95.6295 39.864 91.9815 35.576 91.7255 28.472H119.566C119.758 27.64 119.886 26.68 119.886 25.528C119.886 16.12 113.294 10.744 104.014 10.744C93.8375 10.744 87.4375 17.592 87.4375 27.192C87.4375 37.24 93.9015 43.64 104.078 43.64ZM103.95 14.52C111.374 14.52 115.598 18.04 115.598 24.696C115.598 25.016 115.598 25.336 115.598 25.656H91.7255C92.0455 18.744 95.7575 14.52 103.95 14.52ZM136.984 43.64C143.96 43.64 149.08 39.992 150.616 33.656H150.872V43H155.032V0.119999H150.488V20.216H150.168C148.76 14.776 144.088 10.744 136.6 10.744C126.872 10.744 121.24 17.592 121.24 27.192C121.24 36.792 126.872 43.64 136.984 43.64ZM125.848 27.192C125.848 18.04 130.776 14.968 138.008 14.968C145.816 14.968 150.488 19.32 150.488 27.128V27.704C150.488 35.192 145.56 39.48 138.136 39.48C130.712 39.48 125.848 36.344 125.848 27.192ZM164.649 7.352V0.119999H160.105V7.352H164.649ZM164.649 43V11.384H160.105V43H164.649ZM174.277 43V27.704C174.277 19.576 178.309 14.904 185.989 14.904C193.221 14.904 196.357 18.68 196.357 25.208V43H200.901V24.568C200.901 17.08 196.485 10.744 187.589 10.744C179.717 10.744 175.237 15.928 174.149 21.304H173.829V11.384H169.733V43H174.277Z" fill="white"/>
</g>
</svg>
