<svg width="920" height="64" viewBox="0 0 920 64" fill="none" xmlns="http://www.w3.org/2000/svg">
<g style="mix-blend-mode:soft-light">
<path d="M17.472 52.64C24.448 52.64 29.568 48.992 31.104 42.656H31.36V52H35.52V9.12H30.976V29.216H30.656C29.248 23.776 24.576 19.744 17.088 19.744C7.36 19.744 1.728 26.592 1.728 36.192C1.728 45.792 7.36 52.64 17.472 52.64ZM6.336 36.192C6.336 27.04 11.264 23.968 18.496 23.968C26.304 23.968 30.976 28.32 30.976 36.128V36.704C30.976 44.192 26.048 48.48 18.624 48.48C11.2 48.48 6.336 45.344 6.336 36.192ZM45.1365 52V34.848C45.1365 27.744 47.9525 23.712 54.3525 23.712C59.8565 23.712 62.0965 26.336 62.0965 31.712V34.144H66.6405V31.008C66.6405 25.12 63.4405 19.744 56.1445 19.744C49.5525 19.744 45.9685 23.968 45.0085 29.024H44.6885V20.384H40.5925V52H45.1365ZM73.889 16.352V9.12H69.345V16.352H73.889ZM73.889 52V20.384H69.345V52H73.889ZM83.0685 52V42.656H83.3885C84.8605 48.992 89.9165 52.64 96.9565 52.64C107.261 52.64 112.701 45.792 112.701 36.192C112.701 26.592 107.261 19.744 97.3405 19.744C89.7245 19.744 85.1805 23.776 83.8365 29.216H83.5165V9.12H78.9725V52H83.0685ZM83.5165 36.704V36.128C83.5165 28.32 87.9965 23.968 95.9965 23.968C103.293 23.968 108.093 27.04 108.093 36.192C108.093 45.344 103.421 48.48 95.8685 48.48C88.2525 48.48 83.5165 44.192 83.5165 36.704ZM119.821 52V42.656H120.141C121.613 48.992 126.669 52.64 133.709 52.64C144.013 52.64 149.453 45.792 149.453 36.192C149.453 26.592 144.013 19.744 134.093 19.744C126.477 19.744 121.933 23.776 120.589 29.216H120.269V9.12H115.725V52H119.821ZM120.269 36.704V36.128C120.269 28.32 124.749 23.968 132.749 23.968C140.045 23.968 144.845 27.04 144.845 36.192C144.845 45.344 140.173 48.48 132.621 48.48C125.005 48.48 120.269 44.192 120.269 36.704ZM156.573 52V42.656H156.893C158.365 48.992 163.421 52.64 170.461 52.64C180.765 52.64 186.205 45.792 186.205 36.192C186.205 26.592 180.765 19.744 170.845 19.744C163.229 19.744 158.685 23.776 157.341 29.216H157.021V9.12H152.477V52H156.573ZM157.021 36.704V36.128C157.021 28.32 161.501 23.968 169.501 23.968C176.797 23.968 181.597 27.04 181.597 36.192C181.597 45.344 176.925 48.48 169.373 48.48C161.757 48.48 157.021 44.192 157.021 36.704ZM193.774 52V9.12H189.23V52H193.774ZM213.898 52.64C222.73 52.64 229.258 48.096 229.258 41.504V41.056H224.714V41.504C224.714 46.112 221.258 48.864 213.834 48.864C205.45 48.864 201.802 44.576 201.546 37.472H229.386C229.578 36.64 229.706 35.68 229.706 34.528C229.706 25.12 223.114 19.744 213.834 19.744C203.658 19.744 197.258 26.592 197.258 36.192C197.258 46.24 203.722 52.64 213.898 52.64ZM213.77 23.52C221.194 23.52 225.418 27.04 225.418 33.696C225.418 34.016 225.418 34.336 225.418 34.656H201.546C201.866 27.744 205.578 23.52 213.77 23.52Z" fill="white"/>
</g>
<rect x="262.5" y="26.5" width="33" height="11" rx="5.5" stroke="white"/>
<g style="mix-blend-mode:soft-light">
<path d="M334.384 52V9.12H329.84V52H334.384ZM344.012 16.352V9.12H339.468V16.352H344.012ZM344.012 52V20.384H339.468V52H344.012ZM353.639 52V36.704C353.639 28.576 357.671 23.904 365.351 23.904C372.583 23.904 375.719 27.68 375.719 34.208V52H380.263V33.568C380.263 26.08 375.847 19.744 366.951 19.744C359.079 19.744 354.599 24.928 353.511 30.304H353.191V20.384H349.095V52H353.639ZM389.642 52V37.792H400.201L410.826 52H416.138L403.978 35.488L416.201 20.384H410.826L400.266 33.632H389.642V9.12H385.097V52H389.642ZM433.078 52.64C441.91 52.64 448.438 48.096 448.438 41.504V41.056H443.894V41.504C443.894 46.112 440.438 48.864 433.014 48.864C424.63 48.864 420.982 44.576 420.726 37.472H448.566C448.758 36.64 448.886 35.68 448.886 34.528C448.886 25.12 442.294 19.744 433.014 19.744C422.838 19.744 416.438 26.592 416.438 36.192C416.438 46.24 422.902 52.64 433.078 52.64ZM432.95 23.52C440.374 23.52 444.598 27.04 444.598 33.696C444.598 34.016 444.598 34.336 444.598 34.656H420.726C421.046 27.744 424.758 23.52 432.95 23.52ZM465.984 52.64C472.96 52.64 478.08 48.992 479.616 42.656H479.872V52H484.032V9.12H479.488V29.216H479.168C477.76 23.776 473.088 19.744 465.6 19.744C455.872 19.744 450.24 26.592 450.24 36.192C450.24 45.792 455.872 52.64 465.984 52.64ZM454.848 36.192C454.848 27.04 459.776 23.968 467.008 23.968C474.816 23.968 479.488 28.32 479.488 36.128V36.704C479.488 44.192 474.56 48.48 467.136 48.48C459.712 48.48 454.848 45.344 454.848 36.192ZM493.649 16.352V9.12H489.105V16.352H493.649ZM493.649 52V20.384H489.105V52H493.649ZM503.277 52V36.704C503.277 28.576 507.309 23.904 514.989 23.904C522.221 23.904 525.357 27.68 525.357 34.208V52H529.901V33.568C529.901 26.08 525.485 19.744 516.589 19.744C508.717 19.744 504.237 24.928 503.149 30.304H502.829V20.384H498.733V52H503.277Z" fill="white"/>
</g>
<rect x="564.5" y="26.5" width="33" height="11" rx="5.5" stroke="white"/>
<g style="mix-blend-mode:soft-light">
<path d="M636.384 16.352V9.12H631.84V16.352H636.384ZM636.384 52V20.384H631.84V52H636.384ZM646.012 52V36.704C646.012 28.576 650.044 23.904 657.724 23.904C664.956 23.904 668.092 27.68 668.092 34.208V52H672.636V33.568C672.636 26.08 668.22 19.744 659.324 19.744C651.452 19.744 646.972 24.928 645.884 30.304H645.564V20.384H641.468V52H646.012ZM691.358 52.64C699.55 52.64 705.438 49.504 705.438 43.552C705.438 38.432 701.79 36.128 695.006 35.168L687.262 34.08C682.014 33.312 680.35 32.16 680.35 28.896C680.35 25.12 683.102 23.52 689.758 23.52C697.822 23.52 700.318 26.08 700.318 30.816V31.136H704.862V31.008C704.862 23.584 698.974 19.744 689.886 19.744C681.182 19.744 675.87 23.264 675.87 28.832C675.87 34.08 679.518 36.32 685.278 37.088L693.726 38.304C698.974 39.136 700.958 40.224 700.958 43.552C700.958 47.2 698.526 48.864 691.422 48.864C683.678 48.864 680.542 47.008 680.542 41.696V41.312H675.998V41.44C675.998 48.736 681.63 52.64 691.358 52.64ZM728.24 52V47.84H722.479C717.872 47.84 715.696 46.624 715.696 42.208V24.288H728.24V20.384H715.696V12.832H711.088V20.384H705.455V24.288H711.088V41.952C711.088 49.376 715.12 52 721.392 52H728.24ZM739.431 52.64C746.791 52.64 752.359 49.312 754.215 43.488H754.535V52H758.631V32.224C758.631 25.248 754.535 19.744 744.935 19.744C735.207 19.744 729.703 25.184 729.703 31.84V32.096H734.247V31.84C734.247 26.272 737.831 23.84 744.615 23.84C751.527 23.84 754.215 26.272 754.215 32.416V34.848L739.175 36.512C733.287 37.152 728.999 39.392 728.999 44.576C728.999 49.696 733.223 52.64 739.431 52.64ZM733.543 44.256C733.543 40.992 735.847 39.84 740.583 39.392L754.215 37.856V38.112C754.215 45.728 748.135 49.12 740.455 49.12C735.655 49.12 733.543 47.456 733.543 44.256ZM777.108 49.44C784.404 49.44 789.076 45.856 790.356 40.992H790.676V49.248C790.676 57.12 787.476 59.616 779.284 59.616C772.244 59.616 768.532 57.44 768.532 51.872H763.988C763.988 59.232 770.516 63.52 779.092 63.52C788.628 63.52 795.22 59.424 795.22 48.992V20.384H791.124V28.512H790.804C789.524 22.88 784.276 19.744 777.62 19.744C767.892 19.744 761.94 25.952 761.94 34.592C761.94 43.232 767.7 49.44 777.108 49.44ZM766.484 34.592C766.484 26.528 771.54 23.776 778.644 23.776C785.94 23.776 790.676 27.488 790.676 33.696V34.784C790.676 41.504 786.132 45.408 778.324 45.408C771.476 45.408 766.484 42.656 766.484 34.592ZM804.899 52V34.848C804.899 27.744 807.715 23.712 814.115 23.712C819.619 23.712 821.859 26.336 821.859 31.712V34.144H826.403V31.008C826.403 25.12 823.203 19.744 815.907 19.744C809.315 19.744 805.731 23.968 804.771 29.024H804.451V20.384H800.355V52H804.899ZM837.876 52.64C845.236 52.64 850.804 49.312 852.66 43.488H852.98V52H857.076V32.224C857.076 25.248 852.98 19.744 843.38 19.744C833.652 19.744 828.148 25.184 828.148 31.84V32.096H832.692V31.84C832.692 26.272 836.276 23.84 843.06 23.84C849.972 23.84 852.66 26.272 852.66 32.416V34.848L837.62 36.512C831.732 37.152 827.444 39.392 827.444 44.576C827.444 49.696 831.668 52.64 837.876 52.64ZM831.988 44.256C831.988 40.992 834.292 39.84 839.028 39.392L852.66 37.856V38.112C852.66 45.728 846.58 49.12 838.9 49.12C834.1 49.12 831.988 47.456 831.988 44.256ZM866.529 52V36.704C866.529 28.32 869.537 23.904 877.217 23.904C883.873 23.904 886.817 27.168 886.817 34.208V52H891.361V36.704C891.361 28.32 894.433 23.904 902.049 23.904C908.705 23.904 911.713 27.168 911.713 34.208V52H916.257V33.568C916.257 25.568 911.969 19.744 903.713 19.744C895.777 19.744 892.001 24.8 891.105 30.24H890.785C889.761 24.096 885.793 19.744 878.753 19.744C870.881 19.744 867.233 24.608 866.337 29.92H866.081V20.384H861.985V52H866.529Z" fill="white"/>
</g>
</svg>
