<svg width="14" height="14" viewBox="0 0 14 14" fill="none" xmlns="http://www.w3.org/2000/svg">
<g clip-path="url(#clip0_59_601)">
<path d="M7 0.21875C3.2608 0.21875 0.21875 3.2608 0.21875 7C0.21875 10.7392 3.2608 13.7812 7 13.7812C10.7392 13.7812 13.7812 10.7392 13.7812 7C13.7812 3.2608 10.7392 0.21875 7 0.21875ZM11.4836 3.34595C12.2903 4.33158 12.7788 5.58696 12.7915 6.95409C12.6006 6.9137 10.6856 6.52529 8.75829 6.76766C8.601 6.38373 8.45255 6.04598 8.24923 5.62978C10.3908 4.75541 11.3614 3.51113 11.4836 3.34595ZM10.8396 2.67613C10.7355 2.82453 9.86355 3.99645 7.80391 4.76845C6.85475 3.02457 5.80275 1.59198 5.64266 1.37761C7.4795 0.934828 9.41516 1.41233 10.8396 2.67613ZM4.53745 1.76695C4.69016 1.97638 5.72521 3.41075 6.68495 5.11681C3.97554 5.8363 1.58916 5.82594 1.33011 5.82252C1.7057 4.02514 2.91698 2.53129 4.53745 1.76695ZM1.20777 7.00883C1.20777 6.94961 1.20895 6.89065 1.21073 6.83184C1.46415 6.83703 4.27104 6.87321 7.16363 6.00753C7.32944 6.33205 7.48784 6.66146 7.63323 6.99051C5.53872 7.58045 3.63573 9.27445 2.69683 10.8817C1.77171 9.85483 1.20777 8.49652 1.20777 7.00883ZM3.44468 11.5783C4.04972 10.3415 5.69174 8.74491 8.02692 7.94828C8.84013 10.0615 9.17643 11.8325 9.26256 12.3407C7.40012 13.1341 5.16059 12.9164 3.44468 11.5783ZM10.2363 11.8104C10.177 11.4581 9.86866 9.76248 9.11107 7.68064C10.9262 7.39009 12.5208 7.8657 12.719 7.92824C12.4608 9.53991 11.5358 10.9318 10.2363 11.8104Z" fill="white"/>
</g>
<defs>
<clipPath id="clip0_59_601">
<rect width="14" height="14" fill="white"/>
</clipPath>
</defs>
</svg>
