<svg width="14" height="12" viewBox="0 0 14 12" fill="none" xmlns="http://www.w3.org/2000/svg">
<path d="M7.11647 11.9756L1.27556 6.13472C0.809649 5.66881 0.499043 5.12715 0.34374 4.50972C0.192225 3.8923 0.194119 3.27866 0.349422 2.66881C0.504725 2.05518 0.813437 1.52108 1.27556 1.06654C1.74904 0.60063 2.28882 0.291918 2.89488 0.140403C3.50472 -0.0149 4.11268 -0.0149 4.71874 0.140403C5.32859 0.295706 5.87026 0.604418 6.34374 1.06654L7.11647 1.81654L7.88919 1.06654C8.36647 0.604418 8.90813 0.295706 9.51419 0.140403C10.1203 -0.0149 10.7263 -0.0149 11.3324 0.140403C11.9422 0.291918 12.4839 0.60063 12.9574 1.06654C13.4195 1.52108 13.7282 2.05518 13.8835 2.66881C14.0388 3.27866 14.0388 3.8923 13.8835 4.50972C13.732 5.12715 13.4233 5.66881 12.9574 6.13472L7.11647 11.9756ZM7.11647 10.2086L12.071 5.24836C12.374 4.94911 12.5748 4.59874 12.6733 4.19722C12.7756 3.79571 12.7775 3.39608 12.679 2.99836C12.5805 2.59684 12.3816 2.25025 12.0824 1.95858C11.7718 1.65177 11.4176 1.44911 11.0199 1.35063C10.6259 1.24836 10.2301 1.24836 9.83238 1.35063C9.43465 1.4529 9.07669 1.65745 8.75851 1.96427L7.11647 3.56086L5.47442 1.96427C5.16003 1.65745 4.80207 1.4529 4.40056 1.35063C4.00283 1.24836 3.6051 1.24836 3.20738 1.35063C2.81344 1.44911 2.46116 1.65177 2.15056 1.95858C1.85132 2.25025 1.65245 2.59684 1.55397 2.99836C1.45548 3.39608 1.45738 3.79571 1.55965 4.19722C1.66192 4.59874 1.86268 4.94911 2.16192 5.24836L7.11647 10.2086Z" fill="url(#paint0_linear_520_831)"/>
<defs>
<linearGradient id="paint0_linear_520_831" x1="7.11575" y1="0.0239258" x2="7.11575" y2="11.9756" gradientUnits="userSpaceOnUse">
<stop stop-color="#FFB6FF"/>
<stop offset="1" stop-color="#B344FF"/>
</linearGradient>
</defs>
</svg>
