<svg width="1440" height="768" viewBox="0 0 1440 768" fill="none" xmlns="http://www.w3.org/2000/svg" xmlns:xlink="http://www.w3.org/1999/xlink">
<g clip-path="url(#clip0_9_13)">
<rect width="1440" height="768" fill="#053159"/>
<g filter="url(#filter0_f_9_13)">
<path d="M-152.763 172.987C-77.7632 58.3564 -184.013 -58.4792 -246.513 -102.568L-11.0132 -223.101L574.737 43.2097C620.487 188.987 411.612 491.565 147.237 518.943C-117.138 546.321 -246.513 316.276 -152.763 172.987Z" fill="#D94FD5"/>
</g>
<g filter="url(#filter1_f_9_13)">
<path d="M760.42 -121.51C764.421 2.85511 454.676 841.071 454.676 841.071L1064.93 172.455C1064.93 172.455 1626.43 468.971 1649.1 414.653L1278.43 -193.444L873.295 -346.933L760.42 -121.51Z" fill="#5C24FF"/>
</g>
<g filter="url(#filter2_f_9_13)">
<path d="M149.862 0L-246.513 514.133L-167.388 914.844L269.862 988.089C248.237 862.815 204.987 579.911 204.987 450.489C204.987 321.067 340.987 106.667 408.987 15.6444L149.862 0Z" fill="#571CFF"/>
</g>
<g filter="url(#filter3_f_9_13)">
<path d="M955.335 696.667C1064.39 852.333 912.193 1058.05 866.595 1097.95L334.369 569.273L893.326 347.373C868.555 398.943 846.276 541 955.335 696.667Z" fill="#FF3BFF"/>
</g>
<g filter="url(#filter4_f_9_13)">
<path d="M1164.66 520.652C1033.86 497.043 1006.16 352.237 1008.66 317.986L1532.16 336.119H1722.88L1368.66 643.674C1355.16 612.504 1295.46 544.261 1164.66 520.652Z" fill="#00FFFF"/>
</g>
<g filter="url(#filter5_f_9_13)">
<path d="M1709.7 812.435C1604.97 890.396 961.383 214.585 935.798 190.289L1575.45 -681.254L1505.7 -141.521C1472.05 -152.357 1814.43 734.474 1709.7 812.435Z" fill="#003BD3"/>
</g>
<g filter="url(#filter6_f_9_13)">
<path d="M899.26 236.667C802.741 -92.9326 1249.74 -215.955 1292.87 -238.71C1233.47 -160.204 965.76 280.045 1000.13 355.067C985.635 361.112 932.436 349.959 899.26 236.667Z" fill="#567A64"/>
</g>
<g style="mix-blend-mode:overlay">
<rect width="1440" height="768" fill="#030405"/>
</g>
<rect opacity="0.64" width="1440" height="768" fill="url(#pattern0)" fill-opacity="0.23"/>
</g>
<defs>
<filter id="filter0_f_9_13" x="-576.513" y="-553.101" width="1487.57" height="1404.28" filterUnits="userSpaceOnUse" color-interpolation-filters="sRGB">
<feFlood flood-opacity="0" result="BackgroundImageFix"/>
<feBlend mode="normal" in="SourceGraphic" in2="BackgroundImageFix" result="shape"/>
<feGaussianBlur stdDeviation="165" result="effect1_foregroundBlur_9_13"/>
</filter>
<filter id="filter1_f_9_13" x="114.676" y="-686.933" width="1874.42" height="1868" filterUnits="userSpaceOnUse" color-interpolation-filters="sRGB">
<feFlood flood-opacity="0" result="BackgroundImageFix"/>
<feBlend mode="normal" in="SourceGraphic" in2="BackgroundImageFix" result="shape"/>
<feGaussianBlur stdDeviation="170" result="effect1_foregroundBlur_9_13"/>
</filter>
<filter id="filter2_f_9_13" x="-516.513" y="-270" width="1195.5" height="1528.09" filterUnits="userSpaceOnUse" color-interpolation-filters="sRGB">
<feFlood flood-opacity="0" result="BackgroundImageFix"/>
<feBlend mode="normal" in="SourceGraphic" in2="BackgroundImageFix" result="shape"/>
<feGaussianBlur stdDeviation="135" result="effect1_foregroundBlur_9_13"/>
</filter>
<filter id="filter3_f_9_13" x="97.3692" y="110.373" width="1133.53" height="1224.58" filterUnits="userSpaceOnUse" color-interpolation-filters="sRGB">
<feFlood flood-opacity="0" result="BackgroundImageFix"/>
<feBlend mode="normal" in="SourceGraphic" in2="BackgroundImageFix" result="shape"/>
<feGaussianBlur stdDeviation="118.5" result="effect1_foregroundBlur_9_13"/>
</filter>
<filter id="filter4_f_9_13" x="771.505" y="80.9856" width="1188.38" height="799.689" filterUnits="userSpaceOnUse" color-interpolation-filters="sRGB">
<feFlood flood-opacity="0" result="BackgroundImageFix"/>
<feBlend mode="normal" in="SourceGraphic" in2="BackgroundImageFix" result="shape"/>
<feGaussianBlur stdDeviation="118.5" result="effect1_foregroundBlur_9_13"/>
</filter>
<filter id="filter5_f_9_13" x="698.798" y="-918.254" width="1267.9" height="1973.95" filterUnits="userSpaceOnUse" color-interpolation-filters="sRGB">
<feFlood flood-opacity="0" result="BackgroundImageFix"/>
<feBlend mode="normal" in="SourceGraphic" in2="BackgroundImageFix" result="shape"/>
<feGaussianBlur stdDeviation="118.5" result="effect1_foregroundBlur_9_13"/>
</filter>
<filter id="filter6_f_9_13" x="645.65" y="-478.71" width="887.216" height="1075.08" filterUnits="userSpaceOnUse" color-interpolation-filters="sRGB">
<feFlood flood-opacity="0" result="BackgroundImageFix"/>
<feBlend mode="normal" in="SourceGraphic" in2="BackgroundImageFix" result="shape"/>
<feGaussianBlur stdDeviation="120" result="effect1_foregroundBlur_9_13"/>
</filter>
<pattern id="pattern0" patternContentUnits="objectBoundingBox" width="0.347222" height="0.651042">
<use xlink:href="#image0_9_13" transform="scale(0.000694444 0.00130208)"/>
</pattern>
<clipPath id="clip0_9_13">
<rect width="1440" height="768" fill="white"/>
</clipPath>
</defs>
</svg>
