<svg width="1191" height="254" viewBox="0 0 1191 254" fill="none" xmlns="http://www.w3.org/2000/svg">
    <g style="mix-blend-mode:luminosity">
        <path d="M82.2298 186.24C33.3978 186.24 8.53376 161.6 8.53376 121.28V33.92H42.1338V118.816C42.1338 144.352 51.7658 153.536 82.2298 153.536C112.918 153.536 122.326 144.352 122.326 118.816V33.92H155.926V121.28C155.926 161.6 131.286 186.24 82.2298 186.24ZM195.465 184H151.561L210.025 109.856V107.392L151.561 33.92H195.465L237.577 87.456H240.041L280.585 33.92H324.489L266.249 108.064V110.528L324.489 184H280.585L238.697 129.792H236.233L195.465 184Z" fill="url(#paint0_linear_12_138)" fill-opacity="0.12"/>
        <path d="M8.53376 33.92V32.92H7.53376V33.92H8.53376ZM42.1338 33.92H43.1338V32.92H42.1338V33.92ZM122.326 33.92V32.92H121.326V33.92H122.326ZM155.926 33.92H156.926V32.92H155.926V33.92ZM82.2298 185.24C57.9709 185.24 39.8203 179.12 27.7424 168.14C15.6785 157.173 9.53376 141.23 9.53376 121.28H7.53376C7.53376 141.65 13.821 158.187 26.3971 169.62C38.9592 181.04 57.6566 187.24 82.2298 187.24V185.24ZM9.53376 121.28V33.92H7.53376V121.28H9.53376ZM8.53376 34.92H42.1338V32.92H8.53376V34.92ZM41.1338 33.92V118.816H43.1338V33.92H41.1338ZM41.1338 118.816C41.1338 131.666 43.5484 140.721 50.0959 146.502C56.6047 152.248 66.958 154.536 82.2298 154.536V152.536C67.0375 152.536 57.3429 150.232 51.4196 145.002C45.5351 139.807 43.1338 131.502 43.1338 118.816H41.1338ZM82.2298 154.536C97.6113 154.536 107.967 152.249 114.449 146.5C120.969 140.718 123.326 131.661 123.326 118.816H121.326C121.326 131.507 118.978 139.81 113.122 145.004C107.228 150.231 97.5362 152.536 82.2298 152.536V154.536ZM123.326 118.816V33.92H121.326V118.816H123.326ZM122.326 34.92H155.926V32.92H122.326V34.92ZM154.926 33.92V121.28H156.926V33.92H154.926ZM154.926 121.28C154.926 141.232 148.835 157.175 136.8 168.141C124.751 179.119 106.602 185.24 82.2298 185.24V187.24C106.914 187.24 125.612 181.041 138.147 169.619C150.696 158.185 156.926 141.648 156.926 121.28H154.926ZM195.465 184V185H195.964L196.264 184.601L195.465 184ZM151.561 184L150.776 183.381L149.499 185H151.561V184ZM210.025 109.856L210.811 110.475L211.025 110.203V109.856H210.025ZM210.025 107.392H211.025V107.043L210.808 106.769L210.025 107.392ZM151.561 33.92V32.92H149.488L150.779 34.5427L151.561 33.92ZM195.465 33.92L196.251 33.3017L195.951 32.92H195.465V33.92ZM237.577 87.456L236.791 88.0742L237.092 88.456H237.577V87.456ZM240.041 87.456V88.456H240.538L240.838 88.0597L240.041 87.456ZM280.585 33.92V32.92H280.088L279.788 33.3163L280.585 33.92ZM324.489 33.92L325.276 34.5377L326.546 32.92H324.489V33.92ZM266.249 108.064L265.463 107.446L265.249 107.718V108.064H266.249ZM266.249 110.528H265.249V110.876L265.466 111.149L266.249 110.528ZM324.489 184V185H326.558L325.273 183.379L324.489 184ZM280.585 184L279.794 184.611L280.094 185H280.585V184ZM238.697 129.792L239.489 129.181L239.188 128.792H238.697V129.792ZM236.233 129.792V128.792H235.734L235.434 129.191L236.233 129.792ZM195.465 183H151.561V185H195.465V183ZM152.347 184.619L210.811 110.475L209.24 109.237L150.776 183.381L152.347 184.619ZM211.025 109.856V107.392H209.025V109.856H211.025ZM210.808 106.769L152.344 33.2973L150.779 34.5427L209.243 108.015L210.808 106.769ZM151.561 34.92H195.465V32.92H151.561V34.92ZM194.679 34.5383L236.791 88.0742L238.363 86.8377L196.251 33.3017L194.679 34.5383ZM237.577 88.456H240.041V86.456H237.577V88.456ZM240.838 88.0597L281.382 34.5237L279.788 33.3163L239.244 86.8523L240.838 88.0597ZM280.585 34.92H324.489V32.92H280.585V34.92ZM323.703 33.3023L265.463 107.446L267.036 108.682L325.276 34.5377L323.703 33.3023ZM265.249 108.064V110.528H267.249V108.064H265.249ZM265.466 111.149L323.706 184.621L325.273 183.379L267.033 109.907L265.466 111.149ZM324.489 183H280.585V185H324.489V183ZM281.377 183.389L239.489 129.181L237.906 130.403L279.794 184.611L281.377 183.389ZM238.697 128.792H236.233V130.792H238.697V128.792ZM235.434 129.191L194.666 183.399L196.264 184.601L237.032 130.393L235.434 129.191Z" fill="url(#paint1_linear_12_138)"/>
    </g>
    <g style="mix-blend-mode:hard-light">
        <path d="M385.204 188.48V189.48H385.818L386.096 188.932L385.204 188.48ZM465.844 29.44L466.736 29.8922L467.472 28.44H465.844V29.44ZM430.004 29.44V28.44H429.39L429.112 28.9878L430.004 29.44ZM349.364 188.48L348.472 188.028L347.736 189.48H349.364V188.48ZM386.096 188.932L466.736 29.8922L464.952 28.9878L384.312 188.028L386.096 188.932ZM465.844 28.44H430.004V30.44H465.844V28.44ZM429.112 28.9878L348.472 188.028L350.256 188.932L430.896 29.8922L429.112 28.9878ZM349.364 189.48H385.204V187.48H349.364V189.48Z" fill="white" fill-opacity="0.12"/>
    </g>
    <g style="mix-blend-mode:luminosity">
        <path d="M572.449 186.24C621.504 186.24 646.145 161.6 646.145 121.28V33.92H612.545V118.816C612.545 144.352 603.137 153.536 572.449 153.536C541.985 153.536 532.352 144.352 532.352 118.816V33.92H498.752V121.28C498.752 161.6 523.617 186.24 572.449 186.24ZM685.46 184V33.92H651.86V184H685.46Z" fill="url(#paint2_linear_12_138)"/>
        <path d="M646.145 33.92H647.145V32.92H646.145V33.92ZM612.545 33.92V32.92H611.545V33.92H612.545ZM532.353 33.92H533.353V32.92H532.353V33.92ZM498.752 33.92V32.92H497.752V33.92H498.752ZM572.449 187.24C597.133 187.24 615.831 181.041 628.366 169.619C640.915 158.185 647.145 141.648 647.145 121.28H645.145C645.145 141.232 639.054 157.175 627.019 168.141C614.97 179.119 596.82 185.24 572.449 185.24V187.24ZM647.145 121.28V33.92H645.145V121.28H647.145ZM646.145 32.92H612.545V34.92H646.145V32.92ZM611.545 33.92V118.816H613.545V33.92H611.545ZM611.545 118.816C611.545 131.507 609.197 139.81 603.341 145.004C597.447 150.231 587.755 152.536 572.449 152.536V154.536C587.83 154.536 598.186 152.249 604.668 146.5C611.188 140.718 613.545 131.661 613.545 118.816H611.545ZM572.449 152.536C557.256 152.536 547.562 150.232 541.638 145.002C535.754 139.807 533.353 131.502 533.353 118.816H531.353C531.353 131.666 533.767 140.721 540.315 146.502C546.823 152.248 557.177 154.536 572.449 154.536V152.536ZM533.353 118.816V33.92H531.353V118.816H533.353ZM532.353 32.92H498.752V34.92H532.353V32.92ZM497.752 33.92V121.28H499.752V33.92H497.752ZM497.752 121.28C497.752 141.65 504.04 158.187 516.616 169.62C529.178 181.04 547.875 187.24 572.449 187.24V185.24C548.19 185.24 530.039 179.12 517.961 168.14C505.897 157.173 499.752 141.23 499.752 121.28H497.752ZM685.46 184V185H686.46V184H685.46ZM685.46 33.92H686.46V32.92H685.46V33.92ZM651.86 33.92V32.92H650.86V33.92H651.86ZM651.86 184H650.86V185H651.86V184ZM686.46 184V33.92H684.46V184H686.46ZM685.46 32.92H651.86V34.92H685.46V32.92ZM650.86 33.92V184H652.86V33.92H650.86ZM651.86 185H685.46V183H651.86V185Z" fill="url(#paint3_linear_12_138)"/>
    </g>
    <g style="mix-blend-mode:hard-light">
        <path d="M756.204 188.48V189.48H756.818L757.096 188.932L756.204 188.48ZM836.844 29.44L837.736 29.8922L838.472 28.44H836.844V29.44ZM801.004 29.44V28.44H800.39L800.112 28.9878L801.004 29.44ZM720.364 188.48L719.472 188.028L718.736 189.48H720.364V188.48ZM757.096 188.932L837.736 29.8922L835.952 28.9878L755.312 188.028L757.096 188.932ZM836.844 28.44H801.004V30.44H836.844V28.44ZM800.112 28.9878L719.472 188.028L721.256 188.932L801.896 29.8922L800.112 28.9878ZM720.364 189.48H756.204V187.48H720.364V189.48Z" fill="white" fill-opacity="0.12"/>
    </g>
    <g style="mix-blend-mode:luminosity">
        <path d="M947.58 186.24C994.396 186.24 1024.19 162.944 1024.19 124.864V121.504H986.78V124.864C986.78 144.576 975.58 153.984 948.252 153.984C915.324 153.984 903.004 142.336 903.004 108.96C903.004 75.584 915.324 63.936 948.252 63.936C975.58 63.936 986.78 73.344 986.78 93.056V96.416H1024.19V93.056C1024.19 54.976 994.172 31.68 947.58 31.68C898.076 31.68 867.388 62.144 867.388 108.96C867.388 155.776 898.076 186.24 947.58 186.24ZM1061.37 184L1102.14 129.792H1104.6L1146.49 184H1190.4L1132.16 110.528V108.064L1190.4 33.92H1146.49L1105.95 87.456H1103.48L1061.37 33.92H1017.47L1075.93 107.392V109.856L1017.47 184H1061.37Z" fill="url(#paint4_linear_12_138)" fill-opacity="0.12"/>
        <path d="M1024.19 121.504H1025.19V120.504H1024.19V121.504ZM986.78 121.504V120.504H985.78V121.504H986.78ZM986.78 96.416H985.78V97.416H986.78V96.416ZM1024.19 96.416V97.416H1025.19V96.416H1024.19ZM947.58 187.24C971.141 187.24 990.536 181.379 1004.06 170.614C1017.61 159.83 1025.19 144.191 1025.19 124.864H1023.19C1023.19 143.617 1015.86 158.666 1002.82 169.05C989.743 179.453 970.834 185.24 947.58 185.24V187.24ZM1025.19 124.864V121.504H1023.19V124.864H1025.19ZM1024.19 120.504H986.78V122.504H1024.19V120.504ZM985.78 121.504V124.864H987.78V121.504H985.78ZM985.78 124.864C985.78 134.525 983.045 141.459 977.151 146.025C971.198 150.638 961.839 152.984 948.252 152.984V154.984C961.992 154.984 971.897 152.626 978.376 147.607C984.914 142.541 987.78 134.915 987.78 124.864H985.78ZM948.252 152.984C931.858 152.984 920.887 150.074 913.981 143.275C907.078 136.48 904.004 125.57 904.004 108.96H902.004C902.004 125.726 905.089 137.328 912.578 144.701C920.064 152.07 931.717 154.984 948.252 154.984V152.984ZM904.004 108.96C904.004 92.35 907.078 81.4398 913.981 74.6446C920.887 67.8458 931.858 64.936 948.252 64.936V62.936C931.717 62.936 920.064 65.8502 912.578 73.2194C905.089 80.5922 902.004 92.194 902.004 108.96H904.004ZM948.252 64.936C961.839 64.936 971.198 67.2823 977.151 71.8945C983.045 76.4607 985.78 83.3951 985.78 93.056H987.78C987.78 83.0049 984.914 75.3793 978.376 70.3135C971.897 65.2937 961.992 62.936 948.252 62.936V64.936ZM985.78 93.056V96.416H987.78V93.056H985.78ZM986.78 97.416H1024.19V95.416H986.78V97.416ZM1025.19 96.416V93.056H1023.19V96.416H1025.19ZM1025.19 93.056C1025.19 73.7268 1017.56 58.0882 1003.98 47.3049C990.424 36.5419 971.03 30.68 947.58 30.68V32.68C970.721 32.68 989.631 38.4661 1002.73 48.8711C1015.81 59.2557 1023.19 74.3052 1023.19 93.056H1025.19ZM947.58 30.68C922.621 30.68 902.305 38.3631 888.223 52.0468C874.138 65.7331 866.388 85.3281 866.388 108.96H868.388C868.388 85.7759 875.981 66.7309 889.616 53.4812C903.254 40.2289 923.034 32.68 947.58 32.68V30.68ZM866.388 108.96C866.388 132.592 874.138 152.187 888.223 165.873C902.305 179.557 922.621 187.24 947.58 187.24V185.24C923.034 185.24 903.254 177.691 889.616 164.439C875.981 151.189 868.388 132.144 868.388 108.96H866.388ZM1061.37 184V185H1061.87L1062.17 184.601L1061.37 184ZM1102.14 129.792V128.792H1101.64L1101.34 129.191L1102.14 129.792ZM1104.6 129.792L1105.39 129.181L1105.09 128.792H1104.6V129.792ZM1146.49 184L1145.7 184.611L1146 185H1146.49V184ZM1190.4 184V185H1192.46L1191.18 183.379L1190.4 184ZM1132.16 110.528H1131.16V110.876L1131.37 111.149L1132.16 110.528ZM1132.16 108.064L1131.37 107.446L1131.16 107.718V108.064H1132.16ZM1190.4 33.92L1191.18 34.5377L1192.45 32.92H1190.4V33.92ZM1146.49 33.92V32.92H1145.99L1145.69 33.3163L1146.49 33.92ZM1105.95 87.456V88.456H1106.44L1106.74 88.0597L1105.95 87.456ZM1103.48 87.456L1102.7 88.0742L1103 88.456H1103.48V87.456ZM1061.37 33.92L1062.16 33.3017L1061.86 32.92H1061.37V33.92ZM1017.47 33.92V32.92H1015.39L1016.69 34.5427L1017.47 33.92ZM1075.93 107.392H1076.93V107.043L1076.71 106.769L1075.93 107.392ZM1075.93 109.856L1076.72 110.475L1076.93 110.203V109.856H1075.93ZM1017.47 184L1016.68 183.381L1015.41 185H1017.47V184ZM1062.17 184.601L1102.94 130.393L1101.34 129.191L1060.57 183.399L1062.17 184.601ZM1102.14 130.792H1104.6V128.792H1102.14V130.792ZM1103.81 130.403L1145.7 184.611L1147.28 183.389L1105.39 129.181L1103.81 130.403ZM1146.49 185H1190.4V183H1146.49V185ZM1191.18 183.379L1132.94 109.907L1131.37 111.149L1189.61 184.621L1191.18 183.379ZM1133.16 110.528V108.064H1131.16V110.528H1133.16ZM1132.94 108.682L1191.18 34.5377L1189.61 33.3023L1131.37 107.446L1132.94 108.682ZM1190.4 32.92H1146.49V34.92H1190.4V32.92ZM1145.69 33.3163L1105.15 86.8523L1106.74 88.0597L1147.29 34.5237L1145.69 33.3163ZM1105.95 86.456H1103.48V88.456H1105.95V86.456ZM1104.27 86.8377L1062.16 33.3017L1060.59 34.5383L1102.7 88.0742L1104.27 86.8377ZM1061.37 32.92H1017.47V34.92H1061.37V32.92ZM1016.69 34.5427L1075.15 108.015L1076.71 106.769L1018.25 33.2973L1016.69 34.5427ZM1074.93 107.392V109.856H1076.93V107.392H1074.93ZM1075.15 109.237L1016.68 183.381L1018.25 184.619L1076.72 110.475L1075.15 109.237ZM1017.47 185H1061.37V183H1017.47V185Z" fill="url(#paint5_linear_12_138)"/>
    </g>
    <path d="M1189.5 253H0.5V255H1189.5V253Z" fill="white" fill-opacity="0.12" mask="url(#path-1-inside-1_12_138)"/>
    <defs>
        <linearGradient id="paint0_linear_12_138" x1="0.500045" y1="-54.6668" x2="382.797" y2="72.7362" gradientUnits="userSpaceOnUse">
            <stop stop-color="#FF3BFF"/>
            <stop offset="0.380208" stop-color="#ECBFBF"/>
            <stop offset="0.758263" stop-color="#5C24FF"/>
            <stop offset="1" stop-color="#D94FD5"/>
        </linearGradient>
        <linearGradient id="paint1_linear_12_138" x1="0.500045" y1="-54.6668" x2="382.797" y2="72.7362" gradientUnits="userSpaceOnUse">
            <stop stop-color="#FF3BFF"/>
            <stop offset="0.380208" stop-color="#ECBFBF"/>
            <stop offset="0.758263" stop-color="#5C24FF"/>
            <stop offset="1" stop-color="#D94FD5"/>
        </linearGradient>
        <linearGradient id="paint2_linear_12_138" x1="490.5" y1="-54.6668" x2="747.386" y2="-0.597989" gradientUnits="userSpaceOnUse">
            <stop stop-color="#FF3BFF"/>
            <stop offset="0.380208" stop-color="#ECBFBF"/>
            <stop offset="0.758263" stop-color="#5C24FF"/>
            <stop offset="1" stop-color="#D94FD5"/>
        </linearGradient>
        <linearGradient id="paint3_linear_12_138" x1="490.5" y1="-54.6668" x2="747.386" y2="-0.597989" gradientUnits="userSpaceOnUse">
            <stop stop-color="#FF3BFF"/>
            <stop offset="0.380208" stop-color="#ECBFBF"/>
            <stop offset="0.758263" stop-color="#5C24FF"/>
            <stop offset="1" stop-color="#D94FD5"/>
        </linearGradient>
        <linearGradient id="paint4_linear_12_138" x1="861.5" y1="-54.6668" x2="1248.51" y2="76.3026" gradientUnits="userSpaceOnUse">
            <stop stop-color="#FF3BFF"/>
            <stop offset="0.380208" stop-color="#ECBFBF"/>
            <stop offset="0.758263" stop-color="#5C24FF"/>
            <stop offset="1" stop-color="#D94FD5"/>
        </linearGradient>
        <linearGradient id="paint5_linear_12_138" x1="861.5" y1="-54.6668" x2="1248.51" y2="76.3026" gradientUnits="userSpaceOnUse">
            <stop stop-color="#FF3BFF"/>
            <stop offset="0.380208" stop-color="#ECBFBF"/>
            <stop offset="0.758263" stop-color="#5C24FF"/>
            <stop offset="1" stop-color="#D94FD5"/>
        </linearGradient>
    </defs>
</svg>