<svg width="324" height="156" viewBox="0 0 324 156" fill="none" xmlns="http://www.w3.org/2000/svg">
<g style="mix-blend-mode:luminosity">
<path d="M80.5795 155.24C127.396 155.24 157.188 131.944 157.188 93.864V90.504H119.78V93.864C119.78 113.576 108.58 122.984 81.2515 122.984C48.3235 122.984 36.0035 111.336 36.0035 77.96C36.0035 44.584 48.3235 32.936 81.2515 32.936C108.58 32.936 119.78 42.344 119.78 62.056V65.416H157.188V62.056C157.188 23.976 127.172 0.679998 80.5795 0.679998C31.0755 0.679998 0.387506 31.144 0.387506 77.96C0.387506 124.776 31.0755 155.24 80.5795 155.24ZM194.372 153L235.14 98.792H237.604L279.492 153H323.396L265.156 79.528V77.064L323.396 2.92H279.492L238.948 56.456H236.484L194.372 2.92H150.468L208.932 76.392V78.856L150.468 153H194.372Z" fill="url(#paint0_linear_9_28)" fill-opacity="0.12"/>
<path d="M157.188 90.504H158.188V89.504H157.188V90.504ZM119.78 90.504V89.504H118.78V90.504H119.78ZM119.78 65.416H118.78V66.416H119.78V65.416ZM157.188 65.416V66.416H158.188V65.416H157.188ZM80.5795 156.24C104.141 156.24 123.536 150.379 137.062 139.614C150.614 128.83 158.188 113.191 158.188 93.864H156.188C156.188 112.617 148.865 127.666 135.817 138.05C122.743 148.453 103.834 154.24 80.5795 154.24V156.24ZM158.188 93.864V90.504H156.188V93.864H158.188ZM157.188 89.504H119.78V91.504H157.188V89.504ZM118.78 90.504V93.864H120.78V90.504H118.78ZM118.78 93.864C118.78 103.525 116.045 110.459 110.151 115.025C104.198 119.638 94.8389 121.984 81.2515 121.984V123.984C94.9921 123.984 104.897 121.626 111.376 116.607C117.914 111.541 120.78 103.915 120.78 93.864H118.78ZM81.2515 121.984C64.8581 121.984 53.8874 119.074 46.981 112.275C40.0785 105.48 37.0035 94.57 37.0035 77.96H35.0035C35.0035 94.726 38.0886 106.328 45.578 113.701C53.0636 121.07 64.7169 123.984 81.2515 123.984V121.984ZM37.0035 77.96C37.0035 61.35 40.0785 50.4398 46.981 43.6446C53.8874 36.8458 64.8581 33.936 81.2515 33.936V31.936C64.7169 31.936 53.0636 34.8502 45.578 42.2194C38.0886 49.5922 35.0035 61.194 35.0035 77.96H37.0035ZM81.2515 33.936C94.8389 33.936 104.198 36.2823 110.151 40.8945C116.045 45.4607 118.78 52.3951 118.78 62.056H120.78C120.78 52.0049 117.914 44.3793 111.376 39.3135C104.897 34.2937 94.9921 31.936 81.2515 31.936V33.936ZM118.78 62.056V65.416H120.78V62.056H118.78ZM119.78 66.416H157.188V64.416H119.78V66.416ZM158.188 65.416V62.056H156.188V65.416H158.188ZM158.188 62.056C158.188 42.7268 150.556 27.0882 136.977 16.3049C123.424 5.54186 104.03 -0.320002 80.5795 -0.320002V1.68C103.721 1.68 122.631 7.46613 135.734 17.8711C148.811 28.2557 156.188 43.3052 156.188 62.056H158.188ZM80.5795 -0.320002C55.6211 -0.320002 35.3046 7.36308 21.2226 21.0468C7.13798 34.7331 -0.612494 54.3281 -0.612494 77.96H1.38751C1.38751 54.7759 8.98103 35.7309 22.6164 22.4812C36.2544 9.22891 56.0339 1.68 80.5795 1.68V-0.320002ZM-0.612494 77.96C-0.612494 101.592 7.13798 121.187 21.2226 134.873C35.3046 148.557 55.6211 156.24 80.5795 156.24V154.24C56.0339 154.24 36.2544 146.691 22.6164 133.439C8.98103 120.189 1.38751 101.144 1.38751 77.96H-0.612494ZM194.372 153V154H194.871L195.171 153.601L194.372 153ZM235.14 98.792V97.792H234.64L234.34 98.1909L235.14 98.792ZM237.604 98.792L238.395 98.1805L238.095 97.792H237.604V98.792ZM279.492 153L278.7 153.611L279 154H279.492V153ZM323.396 153V154H325.464L324.179 152.379L323.396 153ZM265.156 79.528H264.156V79.8763L264.372 80.1492L265.156 79.528ZM265.156 77.064L264.369 76.4463L264.156 76.7182V77.064H265.156ZM323.396 2.92L324.182 3.53771L325.453 1.92H323.396V2.92ZM279.492 2.92V1.92H278.994L278.694 2.31627L279.492 2.92ZM238.948 56.456V57.456H239.445L239.745 57.0597L238.948 56.456ZM236.484 56.456L235.698 57.0742L235.998 57.456H236.484V56.456ZM194.372 2.92L195.157 2.30174L194.857 1.92H194.372V2.92ZM150.468 2.92V1.92H148.394L149.685 3.54265L150.468 2.92ZM208.932 76.392H209.932V76.0427L209.714 75.7693L208.932 76.392ZM208.932 78.856L209.717 79.4752L209.932 79.2028V78.856H208.932ZM150.468 153L149.682 152.381L148.406 154H150.468V153ZM195.171 153.601L235.939 99.3931L234.34 98.1909L193.572 152.399L195.171 153.601ZM235.14 99.792H237.604V97.792H235.14V99.792ZM236.812 99.4034L278.7 153.611L280.283 152.389L238.395 98.1805L236.812 99.4034ZM279.492 154H323.396V152H279.492V154ZM324.179 152.379L265.939 78.9068L264.372 80.1492L322.612 153.621L324.179 152.379ZM266.156 79.528V77.064H264.156V79.528H266.156ZM265.942 77.6817L324.182 3.53771L322.609 2.30228L264.369 76.4463L265.942 77.6817ZM323.396 1.92H279.492V3.92H323.396V1.92ZM278.694 2.31627L238.15 55.8523L239.745 57.0597L280.289 3.52373L278.694 2.31627ZM238.948 55.456H236.484V57.456H238.948V55.456ZM237.269 55.8377L195.157 2.30174L193.586 3.53825L235.698 57.0742L237.269 55.8377ZM194.372 1.92H150.468V3.92H194.372V1.92ZM149.685 3.54265L208.149 77.0147L209.714 75.7693L151.25 2.29734L149.685 3.54265ZM207.932 76.392V78.856H209.932V76.392H207.932ZM208.146 78.2368L149.682 152.381L151.253 153.619L209.717 79.4752L208.146 78.2368ZM150.468 154H194.372V152H150.468V154Z" fill="url(#paint1_linear_9_28)"/>
</g>
<defs>
<linearGradient id="paint0_linear_9_28" x1="-5.49995" y1="-85.6668" x2="381.508" y2="45.3026" gradientUnits="userSpaceOnUse">
<stop stop-color="#FF3BFF"/>
<stop offset="0.380208" stop-color="#ECBFBF"/>
<stop offset="0.758263" stop-color="#5C24FF"/>
<stop offset="1" stop-color="#D94FD5"/>
</linearGradient>
<linearGradient id="paint1_linear_9_28" x1="-5.49995" y1="-85.6668" x2="381.508" y2="45.3026" gradientUnits="userSpaceOnUse">
<stop stop-color="#FF3BFF"/>
<stop offset="0.380208" stop-color="#ECBFBF"/>
<stop offset="0.758263" stop-color="#5C24FF"/>
<stop offset="1" stop-color="#D94FD5"/>
</linearGradient>
</defs>
</svg>
