<svg width="117" height="160" viewBox="0 0 117 160" fill="none" xmlns="http://www.w3.org/2000/svg">
<g style="mix-blend-mode:hard-light">
<path d="M36.2038 159.48V160.48H36.8179L37.0956 159.932L36.2038 159.48ZM116.844 0.439987L117.736 0.892218L118.472 -0.560013H116.844V0.439987ZM81.0038 0.439987V-0.560013H80.3896L80.1118 -0.0122433L81.0038 0.439987ZM0.36375 159.48L-0.528151 159.028L-1.26449 160.48H0.36375V159.48ZM37.0956 159.932L117.736 0.892218L115.952 -0.0122433L35.3118 159.028L37.0956 159.932ZM116.844 -0.560013H81.0038V1.43999H116.844V-0.560013ZM80.1118 -0.0122433L-0.528151 159.028L1.25565 159.932L81.8957 0.892218L80.1118 -0.0122433ZM0.36375 160.48H36.2038V158.48H0.36375V160.48Z" fill="white" fill-opacity="0.12"/>
</g>
</svg>
