<svg width="188" height="154" viewBox="0 0 188 154" fill="none" xmlns="http://www.w3.org/2000/svg">
<g style="mix-blend-mode:luminosity">
<path d="M74.4485 153.24C123.504 153.24 148.145 128.6 148.145 88.28V0.919996H114.545V85.816C114.545 111.352 105.137 120.536 74.4485 120.536C43.9845 120.536 34.3525 111.352 34.3525 85.816V0.919996H0.752499V88.28C0.752499 128.6 25.6165 153.24 74.4485 153.24ZM187.46 151V0.919996H153.86V151H187.46Z" fill="url(#paint0_linear_9_29)"/>
<path d="M148.145 0.919998H149.145V-0.0800018H148.145V0.919998ZM114.545 0.919998V-0.0800018H113.545V0.919998H114.545ZM34.3525 0.919998H35.3525V-0.0800018H34.3525V0.919998ZM0.752499 0.919998V-0.0800018H-0.247501V0.919998H0.752499ZM74.4485 154.24C99.1326 154.24 117.831 148.041 130.366 136.619C142.915 125.185 149.145 108.648 149.145 88.28H147.145C147.145 108.232 141.054 124.175 129.019 135.141C116.97 146.119 98.8204 152.24 74.4485 152.24V154.24ZM149.145 88.28V0.919998H147.145V88.28H149.145ZM148.145 -0.0800018H114.545V1.92H148.145V-0.0800018ZM113.545 0.919998V85.816H115.545V0.919998H113.545ZM113.545 85.816C113.545 98.5072 111.197 106.81 105.341 112.004C99.447 117.231 89.755 119.536 74.4485 119.536V121.536C89.8301 121.536 100.186 119.249 106.668 113.5C113.188 107.718 115.545 98.6608 115.545 85.816H113.545ZM74.4485 119.536C59.2562 119.536 49.5616 117.232 43.6383 112.002C37.7538 106.807 35.3525 98.5019 35.3525 85.816H33.3525C33.3525 98.6661 35.7672 107.721 42.3147 113.502C48.8234 119.248 59.1768 121.536 74.4485 121.536V119.536ZM35.3525 85.816V0.919998H33.3525V85.816H35.3525ZM34.3525 -0.0800018H0.752499V1.92H34.3525V-0.0800018ZM-0.247501 0.919998V88.28H1.7525V0.919998H-0.247501ZM-0.247501 88.28C-0.247501 108.65 6.03973 125.187 18.6158 136.62C31.178 148.04 49.8753 154.24 74.4485 154.24V152.24C50.1897 152.24 32.039 146.12 19.9612 135.14C7.89727 124.173 1.7525 108.23 1.7525 88.28H-0.247501ZM187.46 151V152H188.46V151H187.46ZM187.46 0.919998H188.46V-0.0800018H187.46V0.919998ZM153.86 0.919998V-0.0800018H152.86V0.919998H153.86ZM153.86 151H152.86V152H153.86V151ZM188.46 151V0.919998H186.46V151H188.46ZM187.46 -0.0800018H153.86V1.92H187.46V-0.0800018ZM152.86 0.919998V151H154.86V0.919998H152.86ZM153.86 152H187.46V150H153.86V152Z" fill="url(#paint1_linear_9_29)"/>
</g>
<defs>
<linearGradient id="paint0_linear_9_29" x1="-7.49997" y1="-87.6668" x2="249.386" y2="-33.598" gradientUnits="userSpaceOnUse">
<stop stop-color="#FF3BFF"/>
<stop offset="0.380208" stop-color="#ECBFBF"/>
<stop offset="0.758263" stop-color="#5C24FF"/>
<stop offset="1" stop-color="#D94FD5"/>
</linearGradient>
<linearGradient id="paint1_linear_9_29" x1="-7.49997" y1="-87.6668" x2="249.386" y2="-33.598" gradientUnits="userSpaceOnUse">
<stop stop-color="#FF3BFF"/>
<stop offset="0.380208" stop-color="#ECBFBF"/>
<stop offset="0.758263" stop-color="#5C24FF"/>
<stop offset="1" stop-color="#D94FD5"/>
</linearGradient>
</defs>
</svg>
