<svg width="317" height="154" viewBox="0 0 317 154" fill="none" xmlns="http://www.w3.org/2000/svg">
<g style="mix-blend-mode:luminosity">
<path d="M74.2298 153.24C25.3978 153.24 0.533756 128.6 0.533756 88.28V0.919996H34.1338V85.816C34.1338 111.352 43.7658 120.536 74.2298 120.536C104.918 120.536 114.326 111.352 114.326 85.816V0.919996H147.926V88.28C147.926 128.6 123.286 153.24 74.2298 153.24ZM187.465 151H143.561L202.025 76.856V74.392L143.561 0.919996H187.465L229.577 54.456H232.041L272.585 0.919996H316.489L258.249 75.064V77.528L316.489 151H272.585L230.697 96.792H228.233L187.465 151Z" fill="url(#paint0_linear_4_878)" fill-opacity="0.12"/>
<path d="M0.533756 0.919998V-0.0800018H-0.466244V0.919998H0.533756ZM34.1338 0.919998H35.1338V-0.0800018H34.1338V0.919998ZM114.326 0.919998V-0.0800018H113.326V0.919998H114.326ZM147.926 0.919998H148.926V-0.0800018H147.926V0.919998ZM74.2298 152.24C49.9709 152.24 31.8203 146.12 19.7424 135.14C7.67853 124.173 1.53376 108.23 1.53376 88.28H-0.466244C-0.466244 108.65 5.82099 125.187 18.3971 136.62C30.9592 148.04 49.6566 154.24 74.2298 154.24V152.24ZM1.53376 88.28V0.919998H-0.466244V88.28H1.53376ZM0.533756 1.92H34.1338V-0.0800018H0.533756V1.92ZM33.1338 0.919998V85.816H35.1338V0.919998H33.1338ZM33.1338 85.816C33.1338 98.6661 35.5484 107.721 42.0959 113.502C48.6047 119.248 58.958 121.536 74.2298 121.536V119.536C59.0375 119.536 49.3429 117.232 43.4196 112.002C37.5351 106.807 35.1338 98.5019 35.1338 85.816H33.1338ZM74.2298 121.536C89.6113 121.536 99.9673 119.249 106.449 113.5C112.969 107.718 115.326 98.6608 115.326 85.816H113.326C113.326 98.5072 110.978 106.81 105.122 112.004C99.2282 117.231 89.5362 119.536 74.2298 119.536V121.536ZM115.326 85.816V0.919998H113.326V85.816H115.326ZM114.326 1.92H147.926V-0.0800018H114.326V1.92ZM146.926 0.919998V88.28H148.926V0.919998H146.926ZM146.926 88.28C146.926 108.232 140.835 124.175 128.8 135.141C116.751 146.119 98.6017 152.24 74.2298 152.24V154.24C98.9138 154.24 117.612 148.041 130.147 136.619C142.696 125.185 148.926 108.648 148.926 88.28H146.926ZM187.465 151V152H187.964L188.264 151.601L187.465 151ZM143.561 151L142.776 150.381L141.499 152H143.561V151ZM202.025 76.856L202.811 77.4752L203.025 77.2028V76.856H202.025ZM202.025 74.392H203.025V74.0427L202.808 73.7693L202.025 74.392ZM143.561 0.919998V-0.0800018H141.488L142.779 1.54265L143.561 0.919998ZM187.465 0.919998L188.251 0.301739L187.951 -0.0800018H187.465V0.919998ZM229.577 54.456L228.791 55.0742L229.092 55.456H229.577V54.456ZM232.041 54.456V55.456H232.538L232.838 55.0597L232.041 54.456ZM272.585 0.919998V-0.0800018H272.088L271.788 0.316265L272.585 0.919998ZM316.489 0.919998L317.276 1.53771L318.546 -0.0800018H316.489V0.919998ZM258.249 75.064L257.463 74.4463L257.249 74.7182V75.064H258.249ZM258.249 77.528H257.249V77.8763L257.466 78.1492L258.249 77.528ZM316.489 151V152H318.558L317.273 150.379L316.489 151ZM272.585 151L271.794 151.611L272.094 152H272.585V151ZM230.697 96.792L231.489 96.1805L231.188 95.792H230.697V96.792ZM228.233 96.792V95.792H227.734L227.434 96.1909L228.233 96.792ZM187.465 150H143.561V152H187.465V150ZM144.347 151.619L202.811 77.4752L201.24 76.2368L142.776 150.381L144.347 151.619ZM203.025 76.856V74.392H201.025V76.856H203.025ZM202.808 73.7693L144.344 0.29734L142.779 1.54265L201.243 75.0147L202.808 73.7693ZM143.561 1.92H187.465V-0.0800018H143.561V1.92ZM186.679 1.53825L228.791 55.0742L230.363 53.8377L188.251 0.301739L186.679 1.53825ZM229.577 55.456H232.041V53.456H229.577V55.456ZM232.838 55.0597L273.382 1.52373L271.788 0.316265L231.244 53.8523L232.838 55.0597ZM272.585 1.92H316.489V-0.0800018H272.585V1.92ZM315.703 0.30228L257.463 74.4463L259.036 75.6817L317.276 1.53771L315.703 0.30228ZM257.249 75.064V77.528H259.249V75.064H257.249ZM257.466 78.1492L315.706 151.621L317.273 150.379L259.033 76.9068L257.466 78.1492ZM316.489 150H272.585V152H316.489V150ZM273.377 150.389L231.489 96.1805L229.906 97.4034L271.794 151.611L273.377 150.389ZM230.697 95.792H228.233V97.792H230.697V95.792ZM227.434 96.1909L186.666 150.399L188.264 151.601L229.032 97.3931L227.434 96.1909Z" fill="url(#paint1_linear_4_878)"/>
</g>
<defs>
<linearGradient id="paint0_linear_4_878" x1="-7.49995" y1="-87.6668" x2="374.797" y2="39.7362" gradientUnits="userSpaceOnUse">
<stop stop-color="#FF3BFF"/>
<stop offset="0.380208" stop-color="#ECBFBF"/>
<stop offset="0.758263" stop-color="#5C24FF"/>
<stop offset="1" stop-color="#D94FD5"/>
</linearGradient>
<linearGradient id="paint1_linear_4_878" x1="-7.49995" y1="-87.6668" x2="374.797" y2="39.7362" gradientUnits="userSpaceOnUse">
<stop stop-color="#FF3BFF"/>
<stop offset="0.380208" stop-color="#ECBFBF"/>
<stop offset="0.758263" stop-color="#5C24FF"/>
<stop offset="1" stop-color="#D94FD5"/>
</linearGradient>
</defs>
</svg>
